<svg width="150" height="40" viewBox="0 0 150 40" fill="none" xmlns="http://www.w3.org/2000/svg">
<path fill-rule="evenodd" clip-rule="evenodd" d="M91.4554 40.0001C82.5396 40.0001 76.9916 37.7848 75.0131 33.8792L75.0156 39.3514H64.2645V16.173L54.6245 39.3514H40.165L28.1157 10.3784H40.165L47.3948 31.9012L54.6245 10.3784H75.0156V15.8749C76.598 11.5397 82.0076 9.72974 91.6189 9.72974C103.684 9.72974 109.778 12.4134 110.269 18.8069H96.8937C96.6088 17.0309 94.6859 16.0837 91.1283 16.0837C88.3868 16.0837 86.9562 16.8731 86.9562 17.9781C86.9562 19.241 88.3868 19.5962 91.3736 19.9908L101.844 21.4511C105.788 21.9981 108.528 23.2045 110.083 25.1132L110.081 24.8057C110.081 14.8997 116.788 9.72974 130.041 9.72974C143.292 9.72974 150 14.8997 150 24.8057C150 34.7116 143.292 39.8816 130.041 39.8816C120.268 39.8816 114.055 37.0705 111.465 31.6221C110.41 37.5066 103.873 40.0001 91.4554 40.0001ZM75.0156 21.7489C76.2236 24.879 79.6446 26.7984 85.2389 27.4499L93.8277 28.476C96.5675 28.7917 97.9585 29.5416 97.9585 30.765C97.9585 32.1464 96.3635 32.8173 93.2949 32.8173C90.1453 32.8173 88.305 31.9095 88.1018 30.4099H75.0131L75.0156 21.7489ZM130.041 32.5015C125.09 32.5015 122.433 29.8179 122.433 24.8057C122.433 19.7935 125.09 17.0704 130.041 17.0704C134.989 17.0704 137.648 19.7935 137.648 24.8057C137.648 29.8179 134.989 32.5015 130.041 32.5015Z" fill="black"/>
<path d="M26.5089 10.3784H12.0493L0 39.3514H12.0493L19.2791 17.8286L26.5089 39.3514H38.559L26.5089 10.3784Z" fill="black"/>
<path d="M79.3293 0H67.2772L63.7907 8.21623H75.8428L79.3293 0Z" fill="#FF6B00"/>
<path d="M22.5703 27.8921H10.5182L7.03174 36.1083H19.0838L22.5703 27.8921Z" fill="#FF6B00"/>
</svg>
