<svg width="150" height="40" viewBox="0 0 150 40" fill="none" xmlns="http://www.w3.org/2000/svg">
<path fill-rule="evenodd" clip-rule="evenodd" d="M91.4554 40C82.5396 40 76.9916 37.7848 75.0131 33.8792L75.0156 39.3514H64.2645V16.1731L54.6245 39.3514H40.165L28.1157 10.3785H40.165L47.3948 31.9012L54.6245 10.3785H75.0156V15.875C76.598 11.5398 82.0076 9.72986 91.6189 9.72986C103.684 9.72986 109.778 12.4135 110.269 18.807H96.8937C96.6088 17.031 94.6859 16.0838 91.1283 16.0838C88.3868 16.0838 86.9562 16.8732 86.9562 17.9782C86.9562 19.2411 88.3868 19.5963 91.3736 19.9909L101.844 21.4512C105.788 21.9982 108.528 23.2045 110.083 25.1133L110.081 24.8058C110.081 14.8998 116.788 9.72986 130.041 9.72986C143.292 9.72986 150 14.8998 150 24.8058C150 34.7116 143.292 39.8816 130.041 39.8816C120.268 39.8816 114.055 37.0704 111.465 31.6221C110.41 37.5065 103.873 40 91.4554 40ZM75.0156 21.749C76.2236 24.879 79.6446 26.7985 85.2389 27.4499L93.8277 28.476C96.5675 28.7918 97.9585 29.5416 97.9585 30.7651C97.9585 32.1464 96.3635 32.8173 93.2949 32.8173C90.1453 32.8173 88.305 31.9096 88.1018 30.4099H75.0131L75.0156 21.749ZM130.041 32.5015C125.09 32.5015 122.433 29.8179 122.433 24.8058C122.433 19.7936 125.09 17.0705 130.041 17.0705C134.989 17.0705 137.648 19.7936 137.648 24.8058C137.648 29.8179 134.989 32.5015 130.041 32.5015Z" fill="white"/>
<path d="M26.5089 10.3785H12.0493L0 39.3514H12.0493L19.2791 17.8287L26.5089 39.3514H38.559L26.5089 10.3785Z" fill="white"/>
<path d="M79.3291 0H67.277L63.7905 8.2162H75.8426L79.3291 0Z" fill="#FF6B00"/>
<path d="M22.5703 27.8917H10.5182L7.03174 36.1079H19.0838L22.5703 27.8917Z" fill="#FF6B00"/>
</svg>
