<svg width="7" height="15" viewBox="0 0 7 15" fill="none" xmlns="http://www.w3.org/2000/svg">
<g opacity="0.5">
<path d="M6.4039 7.7244L5.01039 6.1191C4.92362 6.01916 4.84382 5.81324 4.83981 5.67824L4.78854 4.01257V3.96431C4.78854 3.70765 4.58854 3.49878 4.34276 3.49878H2.97867H2.43661C2.21698 3.49878 1.97195 3.66125 1.87849 3.86872L0.0421704 7.94212C-0.00864862 8.05509 -0.0137009 8.18124 0.0279053 8.29778C0.0695115 8.41417 0.152724 8.50603 0.26194 8.55631L0.532529 8.68092C0.590183 8.70745 0.651701 8.72095 0.715447 8.72095C0.890342 8.72095 1.0532 8.61714 1.13062 8.45653L1.99083 6.66936V8.46568C1.98726 8.47608 1.98206 8.48555 1.97879 8.4961L0.525099 13.2504C0.464622 13.4484 0.483047 13.6568 0.577107 13.8371C0.671166 14.0175 0.828676 14.1466 1.02096 14.2007L1.11814 14.2282C1.18173 14.2462 1.24771 14.2553 1.31398 14.2553C1.64847 14.2553 1.95234 14.0255 2.05309 13.6962L3.41138 9.25383L3.89312 10.4861C4.01066 10.7867 4.13756 11.313 4.17025 11.6358L4.40071 13.9046C4.43771 14.2679 4.71276 14.5316 5.05482 14.5316C5.11084 14.5316 5.16775 14.5244 5.22377 14.5103L5.3217 14.4855C5.71161 14.3869 5.9871 13.9686 5.93583 13.5532L5.59451 10.7867C5.55113 10.4352 5.40595 9.88478 5.27088 9.55968L4.80994 8.4511C4.804 8.43667 4.79553 8.42363 4.78869 8.40967V7.65845L5.61933 8.56407C5.70195 8.65422 5.8125 8.70388 5.93049 8.70388C6.04981 8.70388 6.16125 8.65329 6.24417 8.56143L6.39781 8.39104C6.56216 8.20871 6.56498 7.90984 6.4039 7.7244Z" fill="#333333"/>
<path d="M3.51086 3.10428C4.3305 3.10428 4.99724 2.40801 4.99724 1.55206C4.99724 0.696271 4.3305 0 3.51086 0C2.69137 0 2.02478 0.696271 2.02478 1.55206C2.02463 2.40801 2.69137 3.10428 3.51086 3.10428Z" fill="#333333"/>
</g>
</svg>
