<svg width="10" height="10" viewBox="0 0 10 10" fill="none" xmlns="http://www.w3.org/2000/svg">
<path d="M3.99198 2.62862e-07C3.3673 0.00033408 2.75141 0.147182 2.19381 0.428742C1.63621 0.710303 1.15246 1.11872 0.781428 1.62117C0.410399 2.12362 0.162445 2.70609 0.0574949 3.32176C-0.0474554 3.93743 -0.00647464 4.56913 0.177143 5.16609C0.360761 5.76305 0.681895 6.30861 1.11473 6.75894C1.54757 7.20926 2.08004 7.55178 2.66935 7.75897C3.25866 7.96615 3.88836 8.03223 4.50785 7.95188C5.12734 7.87154 5.71934 7.64701 6.23626 7.29635L8.70417 9.76174C8.77272 9.83529 8.85538 9.89428 8.94723 9.93519C9.03908 9.97611 9.13823 9.99811 9.23876 9.99988C9.3393 10.0017 9.43916 9.98317 9.5324 9.94552C9.62563 9.90787 9.71032 9.85182 9.78142 9.78074C9.85253 9.70965 9.90858 9.62498 9.94624 9.53176C9.98389 9.43855 10.0024 9.33871 10.0006 9.23819C9.99884 9.13768 9.97684 9.03855 9.93591 8.94672C9.89499 8.8549 9.83598 8.77225 9.76242 8.70372L7.2965 6.23633C7.70446 5.63604 7.94105 4.93592 7.98081 4.21126C8.02058 3.4866 7.86203 2.7648 7.52221 2.12349C7.18239 1.48217 6.67415 0.945595 6.05214 0.571448C5.43013 0.1973 4.71789 -0.000263049 3.99198 2.62862e-07ZM1.49612 3.99253C1.49612 3.33073 1.75907 2.69603 2.22714 2.22806C2.6952 1.7601 3.33004 1.4972 3.99198 1.4972C4.65392 1.4972 5.28876 1.7601 5.75682 2.22806C6.22489 2.69603 6.48784 3.33073 6.48784 3.99253C6.48784 4.65433 6.22489 5.28903 5.75682 5.757C5.28876 6.22496 4.65392 6.48786 3.99198 6.48786C3.33004 6.48786 2.6952 6.22496 2.22714 5.757C1.75907 5.28903 1.49612 4.65433 1.49612 3.99253Z" fill="white"/>
</svg>
