<svg width="18" height="26" viewBox="0 0 18 26" fill="none" xmlns="http://www.w3.org/2000/svg">
<path d="M9 0C4.03737 0 0 4.22409 0 9.41617C0 15.8597 8.05412 25.3192 8.39703 25.7188C8.71912 26.0941 9.28146 26.0934 9.60297 25.7188C9.94588 25.3192 18 15.8597 18 9.41617C17.9999 4.22409 13.9626 0 9 0ZM9 14.1537C6.50318 14.1537 4.47192 12.0285 4.47192 9.41617C4.47192 6.80388 6.50323 4.67869 9 4.67869C11.4968 4.67869 13.528 6.80393 13.528 9.41623C13.528 12.0285 11.4968 14.1537 9 14.1537Z" fill="#FF6B00"/>
</svg>
