<svg width="20" height="20" viewBox="0 0 20 20" fill="none" xmlns="http://www.w3.org/2000/svg">
<path d="M10 20C15.5228 20 20 15.5228 20 10C20 4.47715 15.5228 0 10 0C4.47715 0 0 4.47715 0 10C0 15.5228 4.47715 20 10 20Z" fill="#039BE5"/>
<path d="M4.57605 9.78336L14.2177 6.06588C14.6652 5.90422 15.056 6.17505 14.911 6.85171L14.9118 6.85088L13.2702 14.585C13.1485 15.1333 12.8227 15.2666 12.3668 15.0083L9.86685 13.1658L8.66103 14.3275C8.52769 14.4608 8.4152 14.5733 8.15686 14.5733L8.33436 12.0292L12.9677 7.84337C13.1693 7.66587 12.9227 7.56587 12.6568 7.74254L6.93104 11.3475L4.46272 10.5775C3.92689 10.4075 3.91522 10.0417 4.57605 9.78336Z" fill="white"/>
</svg>
