<svg width="15" height="17" viewBox="0 0 15 17" fill="none" xmlns="http://www.w3.org/2000/svg">
<path d="M14.5168 9.27081C14.9941 5.25281 14.2875 2.71614 13.0128 1.56881L13.0135 1.56814C10.9561 -0.391195 4.00813 -0.681195 1.5468 1.65614C0.441464 2.79947 0.0521311 4.47747 0.00946439 6.55481C-0.0332023 8.63281 -0.083869 12.5255 3.54346 13.5815H3.5468L3.54346 15.1941C3.54346 15.1941 3.5188 15.8475 3.93613 15.9788C4.41346 16.1335 4.62946 15.8301 6.11413 14.0568C8.5968 14.2721 10.5035 13.7788 10.7201 13.7068C11.2215 13.5388 14.0581 13.1635 14.5168 9.27081ZM6.3588 12.9221C6.3588 12.9221 4.78746 14.8815 4.2988 15.3901C4.1388 15.5555 3.96346 15.5401 3.96613 15.2121C3.96613 14.9968 3.97813 12.5348 3.97813 12.5348C0.902798 11.6535 1.08413 8.33881 1.11746 6.60481C1.1508 4.87014 1.46813 3.44947 2.40413 2.49281C4.56346 0.468139 10.6548 0.920806 12.2068 2.37947C14.1041 4.06147 13.4288 8.81348 13.4328 8.97548C13.0428 12.2248 10.7441 12.4308 10.3215 12.5715C10.1408 12.6315 8.46413 13.0628 6.3588 12.9221Z" fill="white"/>
<path d="M7.22811 2.87341C6.97145 2.87341 6.97145 3.27341 7.22811 3.27675C9.21945 3.29208 10.8594 4.68008 10.8774 7.22608C10.8774 7.49475 11.2708 7.49141 11.2674 7.22275H11.2668C11.2454 4.47941 9.45478 2.88875 7.22811 2.87341Z" fill="white"/>
<path d="M9.84741 6.80415C9.84141 7.06948 10.2341 7.08215 10.2374 6.81348C10.2701 5.30081 9.33741 4.05481 7.58475 3.92348C7.32808 3.90481 7.30141 4.30815 7.55741 4.32681C9.07741 4.44215 9.87808 5.47948 9.84741 6.80415Z" fill="white"/>
<path d="M9.42736 8.52482C9.09802 8.33415 8.76269 8.45282 8.62402 8.64015L8.33402 9.01549C8.18669 9.20615 7.91136 9.18082 7.91136 9.18082C5.90203 8.64949 5.36469 6.54682 5.36469 6.54682C5.36469 6.54682 5.34003 6.26215 5.52403 6.10948L5.88669 5.80948C6.06803 5.66548 6.18269 5.31882 5.99803 4.97815C5.50469 4.08682 5.17336 3.77948 5.00469 3.54348C4.82736 3.32148 4.56069 3.27148 4.28336 3.42148H4.27736C3.70069 3.75882 3.06936 4.39015 3.27136 5.04015C3.61603 5.72548 4.24936 7.91015 6.26803 9.56082C7.21669 10.3415 8.71803 11.1415 9.35536 11.3262L9.36136 11.3355C9.98936 11.5448 10.6 10.8888 10.926 10.2948V10.2902C11.0707 10.0028 11.0227 9.73082 10.8114 9.55282C10.4367 9.18749 9.87136 8.78415 9.42736 8.52482Z" fill="white"/>
<path d="M7.85948 5.41145C8.50014 5.44878 8.81081 5.78345 8.84414 6.47079C8.85614 6.73945 9.24614 6.72079 9.23414 6.45212C9.19148 5.55478 8.72348 5.05478 7.88081 5.00812C7.62414 4.99278 7.60014 5.39612 7.85948 5.41145Z" fill="white"/>
</svg>
