<svg width="20" height="20" viewBox="0 0 20 20" fill="none" xmlns="http://www.w3.org/2000/svg">
<path d="M15.5657 20H4.43425C1.98529 20 0 18.0148 0 15.5657V4.43426C0 1.9853 1.98523 0 4.43425 0H15.5658C18.0147 0 20 1.98524 20 4.43426V15.5658C19.9999 18.0148 18.0147 20 15.5657 20Z" fill="#6E64C3"/>
<path d="M8.61377 8.22504C8.76704 8.11247 8.869 7.94341 8.8972 7.75529C8.92541 7.56723 8.87732 7.37568 8.76375 7.22322L8.0105 6.21121C7.92209 6.09242 7.78951 6.01451 7.64276 5.995C7.49601 5.9755 7.34746 6.01594 7.23116 6.10746C7.0923 6.21674 6.93679 6.33876 6.78967 6.45333C6.42752 6.73539 6.29084 7.21912 6.45113 7.64924C7.33522 10.0217 9.19387 11.9031 11.5509 12.8175C12.0357 13.0056 12.5859 12.8111 12.8434 12.3593L13.1328 11.8514C13.275 11.6018 13.2005 11.2847 12.9621 11.1246L12.0404 10.5053C11.8793 10.3971 11.6811 10.3592 11.4914 10.4C11.3017 10.441 11.1364 10.5572 11.0344 10.7224C11.0042 10.7711 10.9751 10.8184 10.9479 10.8625C10.9099 10.924 10.8487 10.9676 10.7781 10.9834C10.7075 10.9991 10.6335 10.9856 10.573 10.946C9.68928 10.3672 8.93429 9.61101 8.35718 8.72611C8.2789 8.60608 8.30891 8.4456 8.4254 8.3621C8.48343 8.32041 8.54779 8.2735 8.61377 8.22504Z" fill="white"/>
<path d="M13.4431 9.53153C13.2909 9.53153 13.1675 9.40808 13.1675 9.25593C13.1675 7.44176 11.6916 5.96582 9.87741 5.96582C9.72519 5.96582 9.60181 5.84237 9.60181 5.69022C9.60181 5.538 9.72526 5.41461 9.87741 5.41461C11.9955 5.41461 13.7187 7.13789 13.7187 9.25593C13.7187 9.40815 13.5953 9.53153 13.4431 9.53153Z" fill="white"/>
<path d="M12.5794 9.53161C12.4272 9.53161 12.3038 9.40816 12.3038 9.25601C12.3038 7.91807 11.2153 6.82965 9.87741 6.82965C9.72519 6.82965 9.60181 6.7062 9.60181 6.55404C9.60181 6.40183 9.72526 6.27844 9.87741 6.27844C11.5193 6.27844 12.8551 7.6142 12.8551 9.25607C12.855 9.40823 12.7316 9.53161 12.5794 9.53161Z" fill="white"/>
<path d="M11.7311 9.53159C11.5789 9.53159 11.4555 9.40814 11.4555 9.25598C11.4555 8.38582 10.7475 7.67782 9.87741 7.67782C9.72519 7.67782 9.60181 7.55437 9.60181 7.4022C9.60181 7.24998 9.72526 7.12659 9.87741 7.12659C11.0515 7.12659 12.0068 8.08187 12.0068 9.25604C12.0068 9.4082 11.8833 9.53159 11.7311 9.53159Z" fill="white"/>
<path d="M16.8458 7.89345C16.8458 5.13269 14.6078 2.89468 11.8471 2.89468H8.30804C5.46276 2.89468 3.15625 5.20122 3.15625 8.04654V10.2688C3.15625 12.464 4.52978 14.3373 6.46383 15.0793V16.8248C6.46383 17.0316 6.59405 17.2192 6.78782 17.2915C6.84411 17.3126 6.90276 17.3227 6.96085 17.3227C7.10287 17.3227 7.24223 17.2621 7.3384 17.1513L8.83967 15.4207H11.8472C14.6079 15.4207 16.8459 13.1827 16.8459 10.4219V7.89345H16.8458ZM15.6821 10.4219C15.6821 12.5365 13.9618 14.2569 11.8472 14.2569H9.18118L7.12692 16.6457C7.10008 16.6769 7.05665 16.6881 7.01807 16.6739C6.97949 16.6596 6.95383 16.6228 6.95383 16.5816C6.95383 16.0727 6.95383 14.9295 6.95383 14.0198C5.41951 13.4641 4.32003 11.9926 4.32003 10.2688V8.0466C4.32003 5.84755 6.10907 4.05848 8.3081 4.05848H11.8472C13.9618 4.05848 15.6821 5.77883 15.6821 7.89345V10.4219H15.6821Z" fill="white"/>
</svg>
