<svg width="30" height="30" viewBox="0 0 30 30" fill="none" xmlns="http://www.w3.org/2000/svg">
<rect width="30" height="30" rx="4" fill="#F4F4F4"/>
<path d="M25.5711 4.99998C25.5711 4.72383 25.3472 4.49998 25.0711 4.49998L20.5711 4.49998C20.2949 4.49998 20.0711 4.72383 20.0711 4.99998C20.0711 5.27612 20.2949 5.49998 20.5711 5.49998L24.5711 5.49998L24.5711 9.49998C24.5711 9.77612 24.7949 9.99998 25.0711 9.99998C25.3472 9.99998 25.5711 9.77612 25.5711 9.49998L25.5711 4.99998ZM18.3536 12.4246L25.4246 5.35353L24.7175 4.64642L17.6464 11.7175L18.3536 12.4246Z" fill="black"/>
<path d="M4.50022 25.0711C4.50022 25.3472 4.72408 25.5711 5.00022 25.5711L9.50022 25.5711C9.77636 25.5711 10.0002 25.3472 10.0002 25.0711C10.0002 24.7949 9.77636 24.5711 9.50022 24.5711L5.50022 24.5711L5.50022 20.5711C5.50022 20.2949 5.27636 20.0711 5.00022 20.0711C4.72408 20.0711 4.50022 20.2949 4.50022 20.5711L4.50022 25.0711ZM11.7177 17.6464L4.64667 24.7175L5.35377 25.4246L12.4248 18.3536L11.7177 17.6464Z" fill="black"/>
</svg>
