<svg width="54" height="15" viewBox="0 0 54 15" fill="none" xmlns="http://www.w3.org/2000/svg">
<path fill-rule="evenodd" clip-rule="evenodd" d="M32.4667 14.2C29.3016 14.2 27.332 13.4136 26.6296 12.0271L26.6305 13.9698H22.8139V5.74142L19.3917 13.9698H14.2586L9.98107 3.68433H14.2586L16.8251 11.3249L19.3917 3.68433H26.6305V5.6356C27.1923 4.09661 29.1127 3.45406 32.5247 3.45406C36.8079 3.45406 38.9711 4.40677 39.1456 6.67645H34.3973C34.2961 6.04598 33.6135 5.70973 32.3506 5.70973C31.3773 5.70973 30.8694 5.98994 30.8694 6.38224C30.8694 6.83057 31.3773 6.95665 32.4376 7.09675L36.1546 7.61514C37.5546 7.80933 38.5276 8.23759 39.0794 8.9152L39.0788 8.80603C39.0788 5.28941 41.4598 3.45406 46.1644 3.45406C50.8687 3.45406 53.25 5.28941 53.25 8.80603C53.25 12.3226 50.8687 14.158 46.1644 14.158C42.6952 14.158 40.4896 13.16 39.5702 11.2258C39.1955 13.3148 36.875 14.2 32.4667 14.2ZM26.6305 7.72087C27.0594 8.83204 28.2738 9.51344 30.2598 9.74472L33.3088 10.109C34.2815 10.2211 34.7753 10.4873 34.7753 10.9216C34.7753 11.412 34.209 11.6501 33.1197 11.6501C32.0016 11.6501 31.3483 11.3279 31.2762 10.7955H26.6296L26.6305 7.72087ZM46.1644 11.538C44.4071 11.538 43.4638 10.5854 43.4638 8.80603C43.4638 7.02671 44.4071 6.05999 46.1644 6.05999C47.9211 6.05999 48.8651 7.02671 48.8651 8.80603C48.8651 10.5854 47.9211 11.538 46.1644 11.538Z" fill="white"/>
<path d="M9.41065 3.68433H4.27751L0 13.9698H4.27751L6.84408 6.32916L9.41065 13.9698H13.6885L9.41065 3.68433Z" fill="white"/>
<path d="M28.1619 0H23.8834L22.6457 2.91676H26.9242L28.1619 0Z" fill="black"/>
<path d="M8.01253 9.90166H3.73403L2.49632 12.8184H6.77482L8.01253 9.90166Z" fill="black"/>
</svg>
