<svg width="20" height="20" viewBox="0 0 20 20" fill="none" xmlns="http://www.w3.org/2000/svg">
<rect x="0.000732422" width="20" height="20" rx="4" fill="#F4F4F4"/>
<path d="M17.2148 3.33332C17.2148 3.05718 16.9909 2.83332 16.7148 2.83332L12.2148 2.83332C11.9386 2.83332 11.7148 3.05718 11.7148 3.33332C11.7148 3.60946 11.9386 3.83332 12.2148 3.83332L16.2148 3.83332L16.2148 7.83332C16.2148 8.10946 16.4386 8.33332 16.7148 8.33332C16.9909 8.33332 17.2148 8.10946 17.2148 7.83332L17.2148 3.33332ZM12.3543 8.40092L17.0683 3.68687L16.3612 2.97976L11.6472 7.69381L12.3543 8.40092Z" fill="black"/>
<path d="M2.83429 16.714C2.83429 16.9902 3.05815 17.214 3.33429 17.214L7.8343 17.214C8.11044 17.214 8.3343 16.9902 8.3343 16.714C8.3343 16.4379 8.11044 16.214 7.8343 16.214L3.83429 16.214L3.83429 12.214C3.83429 11.9379 3.61044 11.714 3.33429 11.714C3.05815 11.714 2.83429 11.9379 2.83429 12.214L2.83429 16.714ZM7.69479 11.6464L2.98074 16.3605L3.68785 17.0676L8.40189 12.3536L7.69479 11.6464Z" fill="black"/>
</svg>
