<svg width="10" height="11" viewBox="0 0 10 11" fill="none" xmlns="http://www.w3.org/2000/svg">
<path fill-rule="evenodd" clip-rule="evenodd" d="M8.33333 7.7751C7.91111 7.7751 7.53333 7.94076 7.24444 8.2003L3.28333 5.90863C3.31111 5.78163 3.33333 5.65462 3.33333 5.52209C3.33333 5.38956 3.31111 5.26255 3.28333 5.13554L7.2 2.86596C7.5 3.14207 7.89444 3.31325 8.33333 3.31325C9.25556 3.31325 10 2.57329 10 1.65663C10 0.73996 9.25556 0 8.33333 0C7.41111 0 6.66667 0.73996 6.66667 1.65663C6.66667 1.78916 6.68889 1.91616 6.71667 2.04317L2.8 4.31275C2.5 4.03665 2.10556 3.86546 1.66667 3.86546C0.744444 3.86546 0 4.60542 0 5.52209C0 6.43876 0.744444 7.17872 1.66667 7.17872C2.10556 7.17872 2.5 7.00753 2.8 6.73143L6.75556 9.02861C6.72778 9.14458 6.71111 9.26606 6.71111 9.38755C6.71111 10.2766 7.43889 11 8.33333 11C9.22778 11 9.95556 10.2766 9.95556 9.38755C9.95556 8.49849 9.22778 7.7751 8.33333 7.7751Z" fill="#333333"/>
</svg>
