<svg width="16" height="14" viewBox="0 0 16 14" fill="none" xmlns="http://www.w3.org/2000/svg">
<path d="M15.752 0.589355C15.5565 0.350342 15.2638 0.21875 14.9276 0.21875C14.7449 0.21875 14.5513 0.257202 14.3523 0.333252L0.808619 5.5033C0.0898688 5.77759 -0.00693289 6.18921 -0.00070731 6.41016C0.00551827 6.6311 0.125513 7.03662 0.858668 7.2699C0.863062 7.27124 0.867457 7.27258 0.871851 7.2738L3.68118 8.07776L5.20046 12.4222C5.40762 13.0145 5.87258 13.3824 6.41409 13.3824C6.75552 13.3824 7.09133 13.2394 7.38528 12.9689L9.12295 11.3689L11.6433 13.3983C11.6436 13.3986 11.6439 13.3987 11.6442 13.3989L11.6681 13.4182C11.6703 13.4199 11.6726 13.4218 11.6748 13.4235C11.955 13.6407 12.2608 13.7555 12.5595 13.7556H12.5596C13.1432 13.7556 13.6079 13.3236 13.7433 12.6552L15.9624 1.69763C16.0515 1.25781 15.9768 0.864258 15.752 0.589355ZM4.621 7.92505L10.041 5.15613L6.66616 8.74219C6.61087 8.8009 6.57168 8.8728 6.55239 8.95105L5.90164 11.587L4.621 7.92505ZM6.75015 12.2792C6.72769 12.2998 6.7051 12.3182 6.68252 12.3352L7.28628 9.88989L8.38455 10.7743L6.75015 12.2792ZM15.0436 1.51147L12.8245 12.4691C12.8031 12.574 12.7349 12.818 12.5595 12.818C12.4728 12.818 12.3639 12.7708 12.2525 12.6849L9.39651 10.3854C9.39614 10.385 9.39565 10.3846 9.39517 10.3844L7.69583 9.01599L12.5763 3.83008C12.7326 3.66406 12.7467 3.40979 12.6099 3.22742C12.4729 3.04504 12.2248 2.98767 12.0218 3.09143L3.99465 7.19226L1.14712 6.37756L14.6867 1.20911C14.8011 1.16541 14.8809 1.15625 14.9276 1.15625C14.9563 1.15625 15.0073 1.15967 15.0263 1.18298C15.0512 1.21338 15.0829 1.31702 15.0436 1.51147Z" fill="white"/>
</svg>
