<svg width="20" height="11" viewBox="0 0 20 11" fill="none" xmlns="http://www.w3.org/2000/svg">
<g opacity="0.5">
<path d="M10.0018 7.79434C11.362 7.79434 12.4646 6.64288 12.4646 5.22249C12.4646 3.80209 11.362 2.65063 10.0018 2.65063C8.64167 2.65063 7.53906 3.80209 7.53906 5.22249C7.53906 6.64288 8.64167 7.79434 10.0018 7.79434Z" fill="black"/>
<path d="M19.8761 4.89674C19.6957 4.69744 15.4049 0 9.99872 0C4.59312 0 0.302952 4.69744 0.123055 4.89674C-0.0410182 5.07976 -0.0410182 5.36516 0.123055 5.54732C0.303666 5.74662 4.59395 10.4462 9.99872 10.4462C15.4049 10.4462 19.697 5.74662 19.8761 5.54732C20.0413 5.36516 20.0413 5.07827 19.8761 4.89674ZM9.99991 9.19844C7.90123 9.19844 6.19387 7.41506 6.19387 5.22165C6.19387 3.02999 7.90123 1.24562 9.99991 1.24562C12.0985 1.24562 13.8082 3.02937 13.8082 5.22165C13.8077 7.41382 12.0985 9.19844 9.99991 9.19844ZM6.98187 1.46828C5.95329 2.3722 5.28415 3.71026 5.28415 5.22165C5.28415 6.73242 5.95329 8.07061 6.98187 8.97615C4.13588 8.02029 1.90097 6.00903 1.10214 5.22165C1.90109 4.43515 4.13648 2.42364 6.98187 1.46828ZM13.0194 8.97466C14.0472 8.07011 14.7172 6.73168 14.7172 5.22165C14.7172 3.71163 14.0478 2.37419 13.0185 1.46964C15.8644 2.42551 18.0977 4.43428 18.897 5.22165C18.0975 6.00829 15.8643 8.01743 13.0194 8.97466Z" fill="black"/>
</g>
</svg>
