<svg width="15" height="15" viewBox="0 0 15 15" fill="none" xmlns="http://www.w3.org/2000/svg">
<path fill-rule="evenodd" clip-rule="evenodd" d="M12.7532 2.17987C11.3499 0.774902 9.48358 0.000823973 7.49533 0C3.39835 0 0.0639954 3.33426 0.0623474 7.43234C0.0617981 8.74237 0.404022 10.0212 1.0545 11.1484L0 15L3.94034 13.9664C5.02606 14.5586 6.24838 14.8707 7.49231 14.8711H7.49542C11.5919 14.8711 14.9267 11.5366 14.9282 7.43829C14.929 5.45215 14.1566 3.58475 12.7532 2.17987ZM7.49533 13.6158H7.49277C6.38425 13.6154 5.29706 13.3174 4.34839 12.7547L4.12289 12.6207L1.78464 13.2341L2.40875 10.9544L2.26181 10.7206C1.64337 9.737 1.3168 8.6001 1.31735 7.4328C1.31863 4.02658 4.09012 1.25537 7.4978 1.25537C9.14795 1.25592 10.6991 1.89935 11.8655 3.06711C13.0319 4.23486 13.6739 5.78705 13.6733 7.43783C13.6718 10.8443 10.9005 13.6158 7.49533 13.6158ZM10.8841 8.98883C10.6984 8.89581 9.78525 8.44665 9.61496 8.38458C9.44485 8.3226 9.32089 8.29175 9.1972 8.4776C9.07333 8.66345 8.71747 9.08185 8.60907 9.20572C8.50067 9.32968 8.39246 9.34524 8.20669 9.25223C8.02093 9.1593 7.42255 8.9631 6.7131 8.33038C6.16104 7.83792 5.78833 7.22974 5.67993 7.04388C5.57172 6.85785 5.67902 6.76703 5.76141 6.66486C5.96246 6.41519 6.16379 6.15344 6.22568 6.02957C6.28766 5.90561 6.25662 5.79712 6.21011 5.70419C6.16379 5.61127 5.79236 4.69711 5.63763 4.32513C5.48675 3.96313 5.33377 4.01202 5.2197 4.00635C5.11148 4.00095 4.98761 3.99985 4.86374 3.99985C4.73996 3.99985 4.53873 4.04626 4.36844 4.2323C4.19824 4.41824 3.71851 4.86749 3.71851 5.78165C3.71851 6.6958 4.384 7.57892 4.47684 7.70288C4.56967 7.82684 5.7865 9.70276 7.6495 10.5071C8.09262 10.6987 8.43851 10.8128 8.70831 10.8984C9.15326 11.0398 9.55801 11.0198 9.87808 10.972C10.235 10.9187 10.9768 10.5227 11.1317 10.0889C11.2864 9.65506 11.2864 9.28326 11.2399 9.20572C11.1936 9.12826 11.0697 9.08185 10.8841 8.98883Z" fill="white"/>
</svg>
